<?xml version="1.0" encoding="UTF-8"?>
<svg version="1.1" xmlns="http://www.w3.org/2000/svg" width="1200" height="1200">
<path d="M0 0 C2.99201587 0.0046087 5.98362289 -0.00222865 8.97558594 -0.02050781 C30.83771419 -0.15258582 52.33791936 0.95365238 74.07446289 3.31567383 C75.01861053 3.41800323 75.96275818 3.52033264 76.93551636 3.62576294 C81.74620069 4.16248507 86.53536923 4.79594213 91.32446289 5.50317383 C92.01795837 5.60416382 92.71145386 5.70515381 93.42596436 5.8092041 C146.36674095 13.58728182 198.14341574 28.70370827 247.07446289 50.31567383 C248.23059082 50.82565918 249.38671875 51.33564453 250.57788086 51.86108398 C292.75353179 70.62594683 332.40614187 94.27571043 369.07446289 122.31567383 C369.71657715 122.80616211 370.35869141 123.29665039 371.02026367 123.80200195 C379.00984346 129.93339443 386.75931442 136.3259514 394.40063477 142.88452148 C396.15473138 144.38430479 397.91842461 145.87220236 399.68383789 147.35864258 C405.72904374 152.46610588 411.55323751 157.63847436 417.07836914 163.31567383 C418.94771464 165.18867754 420.87225973 166.91423412 422.88696289 168.62817383 C430.50097137 175.17622112 437.60650099 182.42165874 444.10961914 190.06958008 C446.26433594 192.53272553 448.49242157 194.91510812 450.73291016 197.30004883 C456.80231719 203.76395437 462.5345553 210.38849253 468.07446289 217.31567383 C469.05574511 218.50725492 470.03894334 219.69725979 471.02368164 220.88598633 C491.25836579 245.3766856 509.25844937 271.76748311 525.07446289 299.31567383 C525.49598633 300.04979492 525.91750977 300.78391602 526.35180664 301.5402832 C529.33085464 306.76057759 532.21934669 312.02675821 535.07446289 317.31567383 C535.53820313 318.16935547 536.00194336 319.02303711 536.47973633 319.90258789 C570.24206922 382.30764809 591.45038381 451.47708751 600.82446289 521.69067383 C600.92569458 522.44112976 601.02692627 523.19158569 601.13122559 523.96478271 C601.85647828 529.40717108 602.49629464 534.85573345 603.07446289 540.31567383 C603.21590225 541.6500499 603.21590225 541.6500499 603.36019897 543.01138306 C605.13244576 560.41622841 605.41919692 577.76617558 605.39013672 595.24121094 C605.38552802 598.2332268 605.39236537 601.22483383 605.41064453 604.21679688 C605.54272253 626.07892513 604.43648434 647.57913029 602.07446289 669.31567383 C601.97213348 670.25982147 601.86980408 671.20396912 601.76437378 672.17672729 C601.22765165 676.98741163 600.59419459 681.77658016 599.88696289 686.56567383 C599.7859729 687.25916931 599.68498291 687.95266479 599.58093262 688.66717529 C591.8028549 741.60795189 576.68642845 793.38462668 555.07446289 842.31567383 C554.56447754 843.47180176 554.05449219 844.62792969 553.52905273 845.8190918 C534.76418989 887.99474272 511.11442629 927.64735281 483.07446289 964.31567383 C482.58397461 964.95778809 482.09348633 965.59990234 481.58813477 966.26147461 C475.45674229 974.2510544 469.06418532 982.00052535 462.50561523 989.6418457 C461.00583193 991.39594231 459.51793436 993.15963555 458.03149414 994.92504883 C452.92403084 1000.97025468 447.75166236 1006.79444845 442.07446289 1012.31958008 C440.20145918 1014.18892558 438.4759026 1016.11347066 436.76196289 1018.12817383 C430.2139156 1025.7421823 422.96847798 1032.84771193 415.32055664 1039.35083008 C412.85741119 1041.50554688 410.47502859 1043.73363251 408.09008789 1045.97412109 C401.62618235 1052.04352813 395.00164419 1057.77576624 388.07446289 1063.31567383 C386.8828818 1064.29695605 385.69287693 1065.28015428 384.50415039 1066.26489258 C360.01345112 1086.49957672 333.62265361 1104.49966031 306.07446289 1120.31567383 C305.3403418 1120.73719727 304.6062207 1121.1587207 303.84985352 1121.59301758 C298.62955913 1124.57206558 293.36337851 1127.46055763 288.07446289 1130.31567383 C287.22078125 1130.77941406 286.36709961 1131.2431543 285.48754883 1131.72094727 C223.08248863 1165.48328016 153.91304921 1186.69159474 83.69946289 1196.06567383 C82.94900696 1196.16690552 82.19855103 1196.26813721 81.425354 1196.37243652 C75.98296563 1197.09768921 70.53440327 1197.73750557 65.07446289 1198.31567383 C63.74008682 1198.45711319 63.74008682 1198.45711319 62.37875366 1198.60140991 C44.97390831 1200.37365669 27.62396114 1200.66040786 10.14892578 1200.63134766 C7.15690992 1200.62673896 4.16530289 1200.6335763 1.17333984 1200.65185547 C-20.68878841 1200.78393347 -42.18899357 1199.67769527 -63.92553711 1197.31567383 C-64.86968475 1197.21334442 -65.8138324 1197.11101501 -66.78659058 1197.00558472 C-71.59727491 1196.46886258 -76.38644344 1195.83540553 -81.17553711 1195.12817383 C-81.86903259 1195.02718384 -82.56252808 1194.92619385 -83.27703857 1194.82214355 C-136.21781517 1187.04406584 -187.99448996 1171.92763939 -236.92553711 1150.31567383 C-238.08166504 1149.80568848 -239.23779297 1149.29570313 -240.42895508 1148.77026367 C-282.604606 1130.00540083 -322.25721609 1106.35563723 -358.92553711 1078.31567383 C-359.8887085 1077.57994141 -359.8887085 1077.57994141 -360.87133789 1076.8293457 C-368.86091768 1070.69795323 -376.61038864 1064.30539625 -384.25170898 1057.74682617 C-386.00580559 1056.24704287 -387.76949883 1054.7591453 -389.53491211 1053.27270508 C-395.58011796 1048.16524178 -401.40431173 1042.9928733 -406.92944336 1037.31567383 C-408.79878886 1035.44267011 -410.72333394 1033.71711353 -412.73803711 1032.00317383 C-420.35204558 1025.45512654 -427.45757521 1018.20968892 -433.96069336 1010.56176758 C-436.11541016 1008.09862213 -438.34349579 1005.71623953 -440.58398438 1003.33129883 C-446.65339141 996.86739328 -452.38562952 990.24285513 -457.92553711 983.31567383 C-458.90681933 982.12409274 -459.89001756 980.93408786 -460.87475586 979.74536133 C-481.10944001 955.25466206 -499.10952359 928.86386454 -514.92553711 901.31567383 C-515.34706055 900.58155273 -515.76858398 899.84743164 -516.20288086 899.09106445 C-519.18192886 893.87077007 -522.07042091 888.60458945 -524.92553711 883.31567383 C-525.38927734 882.46199219 -525.85301758 881.60831055 -526.33081055 880.72875977 C-560.09314344 818.32369957 -581.30145802 749.15426015 -590.67553711 678.94067383 C-590.7767688 678.1902179 -590.87800049 677.43976196 -590.9822998 676.66656494 C-591.70755249 671.22417657 -592.34736885 665.77561421 -592.92553711 660.31567383 C-593.06697647 658.98129776 -593.06697647 658.98129776 -593.21127319 657.6199646 C-594.98351998 640.21511925 -595.27027114 622.86517208 -595.24121094 605.39013672 C-595.23660224 602.39812085 -595.24343959 599.40651383 -595.26171875 596.41455078 C-595.39379675 574.55242253 -594.28755855 553.05221736 -591.92553711 531.31567383 C-591.8232077 530.37152618 -591.7208783 529.42737854 -591.615448 528.45462036 C-591.07872586 523.64393603 -590.44526881 518.85476749 -589.73803711 514.06567383 C-589.63704712 513.37217834 -589.53605713 512.67868286 -589.43200684 511.96417236 C-581.65392912 459.02339577 -566.53750267 407.24672097 -544.92553711 358.31567383 C-544.41555176 357.1595459 -543.90556641 356.00341797 -543.38012695 354.81225586 C-524.61526411 312.63660493 -500.96550051 272.98399484 -472.92553711 236.31567383 C-472.43504883 235.67355957 -471.94456055 235.03144531 -471.43920898 234.36987305 C-465.30781651 226.38029326 -458.91525954 218.6308223 -452.35668945 210.98950195 C-450.85690615 209.23540534 -449.36900858 207.47171211 -447.88256836 205.70629883 C-442.77510506 199.66109298 -437.60273658 193.83689921 -431.92553711 188.31176758 C-430.0525334 186.44242207 -428.32697682 184.51787699 -426.61303711 182.50317383 C-420.06498982 174.88916535 -412.8195522 167.78363573 -405.17163086 161.28051758 C-402.70848541 159.12580077 -400.32610281 156.89771515 -397.94116211 154.65722656 C-391.47725656 148.58781953 -384.85271841 142.85558142 -377.92553711 137.31567383 C-376.73395602 136.33439161 -375.54395114 135.35119337 -374.35522461 134.36645508 C-349.86452534 114.13177093 -323.47372782 96.13168735 -295.92553711 80.31567383 C-295.19141602 79.89415039 -294.45729492 79.47262695 -293.70092773 79.03833008 C-288.48063335 76.05928208 -283.21445273 73.17079002 -277.92553711 70.31567383 C-277.07185547 69.85193359 -276.21817383 69.38819336 -275.33862305 68.91040039 C-212.93356285 35.1480675 -143.76412343 13.93975291 -73.55053711 4.56567383 C-72.80008118 4.46444214 -72.04962524 4.36321045 -71.27642822 4.25891113 C-65.83403985 3.53365844 -60.38547749 2.89384208 -54.92553711 2.31567383 C-53.59116104 2.17423447 -53.59116104 2.17423447 -52.22982788 2.02993774 C-34.82498253 0.25769096 -17.47503536 -0.0290602 0 0 Z " fill="#A8A0C8" transform="translate(594.925537109375,-0.315673828125)"/>
<path d="M0 0 C1.16519853 0.00351175 1.16519853 0.00351175 2.35393643 0.00709444 C3.17534029 0.005641 3.99674415 0.00418756 4.84303904 0.00269008 C7.63124558 -0.00099699 10.41939838 0.00252893 13.20760465 0.00595194 C15.21240828 0.00480119 17.21721169 0.00321398 19.22201467 0.0012247 C24.75899524 -0.00297495 30.29595873 -0.00087509 35.83293939 0.00221092 C41.79346135 0.00446223 47.75398025 0.00098675 53.71450162 -0.00176901 C64.725647 -0.00597045 75.73678727 -0.00558976 86.74793285 -0.00285754 C96.91863377 -0.00034612 107.08933268 0.00031666 117.26003385 -0.00088018 C117.93358452 -0.00095657 118.60713519 -0.00103295 119.30109648 -0.00111165 C122.03497032 -0.00142297 124.76884416 -0.00174137 127.50271799 -0.00207142 C153.17047711 -0.0051333 178.83823273 -0.00235239 204.50599131 0.00302548 C227.33117289 0.0077714 250.1563489 0.00734679 272.98153043 0.00256449 C298.60108963 -0.00278529 324.22064574 -0.00491619 349.84020543 -0.00182325 C352.56921887 -0.00150251 355.29823232 -0.00118967 358.02724576 -0.00088018 C359.03524158 -0.00076157 359.03524158 -0.00076157 360.06360094 -0.00064055 C370.23015364 0.00049893 380.39670411 -0.00083709 390.5632565 -0.00335974 C402.11823006 -0.00621253 413.67319735 -0.00542126 425.22817016 -0.00007899 C431.12993136 0.00255917 437.03168122 0.00356117 442.93344235 0.00027186 C448.32682869 -0.00268878 453.72019305 -0.00110222 459.11357737 0.00424941 C461.07384818 0.0053746 463.03412082 0.00478019 464.99439049 0.00237362 C467.64073517 -0.0006282 470.28700266 0.00241185 472.93334317 0.00709444 C473.7101422 0.00475328 474.48694122 0.00241211 475.28727961 0 C480.52948946 0.01878524 480.52948946 0.01878524 481.6436398 1.13293558 C481.74122667 2.99387258 481.7673534 4.85856929 481.76668763 6.72206312 C481.7686785 7.94362797 481.77066937 9.16519282 481.77272058 10.42377478 C481.76986796 11.79603125 481.76692256 13.16828752 481.76389432 14.54054362 C481.76433132 15.98158385 481.76520744 17.422624 481.76648831 18.86366373 C481.76874335 22.85031094 481.76470152 26.83693156 481.75971253 30.82357539 C481.75536511 35.17860241 481.75680587 39.53362808 481.75753045 43.88865668 C481.75806348 52.35359338 481.75343291 60.81851953 481.74702912 69.28345352 C481.73984707 79.06885322 481.73903536 88.85424653 481.7382443 98.63964945 C481.73298761 124.49157984 481.71902659 150.34350787 481.7061398 176.19543558 C481.6855148 233.92481058 481.6648898 291.65418558 481.6436398 351.13293558 C320.6036398 351.13293558 159.5636398 351.13293558 -6.3563602 351.13293558 C-6.3769852 293.40356058 -6.3976102 235.67418558 -6.4188602 176.19543558 C-6.4279642 157.93207865 -6.4370682 139.66872172 -6.44644809 120.85192972 C-6.45096469 98.63964945 -6.45096469 98.63964945 -6.45180392 88.25840861 C-6.45273982 80.97011597 -6.45642211 73.68183092 -6.46193576 66.39354044 C-6.46827699 57.99897166 -6.47120182 49.60441021 -6.46980515 41.20983901 C-6.46919969 36.91072502 -6.47019531 32.61162742 -6.47557533 28.31251639 C-6.48040155 24.43258451 -6.48071 20.55268079 -6.4772613 16.67274767 C-6.47683378 15.26293828 -6.47813168 13.85312719 -6.48124278 12.44332117 C-6.48520718 10.53623918 -6.48251614 8.6291467 -6.47940803 6.72206312 C-6.47978775 5.65922592 -6.48016747 4.59638872 -6.48055869 3.50134432 C-6.2469152 -0.95413056 -3.89155665 0.01394523 0 0 Z " fill="#FEFEFE" transform="translate(362.35636019706726,475.86706441640854)"/>
<path d="M0 0 C1.25524479 -0.00307895 1.25524479 -0.00307895 2.53584805 -0.0062201 C5.35252827 -0.01189471 8.16915967 -0.01043228 10.98584461 -0.00901413 C13.02068491 -0.0115975 15.05552471 -0.01461058 17.0903638 -0.01801753 C22.69214091 -0.02609407 28.29390522 -0.02787747 33.89568746 -0.028615 C39.93334223 -0.03046441 45.97099033 -0.03801116 52.00864124 -0.04475021 C65.90396254 -0.05904722 79.79928071 -0.06486062 93.69460752 -0.06944216 C100.56158947 -0.07177837 107.42857058 -0.07538104 114.29555188 -0.07913754 C137.80338481 -0.09197258 161.31121729 -0.10269194 184.81905365 -0.10614014 C186.29461803 -0.10636177 187.7701824 -0.10658355 189.24574678 -0.10680549 C190.7248672 -0.10702613 192.20398761 -0.10724661 193.68310803 -0.10746694 C196.65046005 -0.10790949 199.61781206 -0.1083566 202.58516407 -0.10880661 C203.68875947 -0.1089707 203.68875947 -0.1089707 204.81464973 -0.1091381 C228.67124456 -0.11276881 252.527809 -0.12868962 276.38439219 -0.15199697 C301.60889639 -0.17659569 326.83338323 -0.19031299 352.05789977 -0.19150805 C354.82717375 -0.19167951 357.59644773 -0.19189494 360.3657217 -0.19214249 C361.04759131 -0.19219826 361.72946091 -0.19225402 362.43199323 -0.19231148 C373.40271819 -0.19346187 384.37341195 -0.20448281 395.34412637 -0.21902954 C406.37213909 -0.23339935 417.40012024 -0.23637637 428.42814197 -0.22858956 C434.40196588 -0.224679 440.37568485 -0.22563263 446.34949589 -0.23964691 C451.81911443 -0.25236111 457.28854893 -0.25121001 462.75816713 -0.2390562 C464.73597699 -0.23709492 466.71379978 -0.24019749 468.69159146 -0.24890056 C483.43929007 -0.30968315 495.38732326 0.40983747 506.6742754 10.98299026 C513.44221497 18.21172573 516.81779581 26.33990721 516.82914066 36.20232201 C516.83298181 37.45465822 516.83682295 38.70699444 516.8407805 39.99728024 C516.84000025 41.38958118 516.83912147 42.78188207 516.83815479 44.17418289 C516.84073845 45.65131231 516.84375161 47.12844102 516.84715819 48.60556877 C516.85523154 52.67039374 516.85701795 56.73520105 516.85775566 60.80003309 C516.85960566 65.18193123 516.86715279 69.5638202 516.87389088 73.94571304 C516.88747764 83.53055142 516.8934996 93.11538562 516.89790154 102.70023203 C516.90066368 108.68511958 516.90490101 114.67000551 516.90940571 120.65489197 C516.92159939 137.22499172 516.93189814 153.79509018 516.9352808 170.36519432 C516.93550037 171.42591066 516.93571993 172.48662699 516.93594615 173.57948624 C516.93616443 174.64274558 516.93638271 175.70600491 516.9366076 176.80148423 C516.93705107 178.95606176 516.93749763 181.11063929 516.93794727 183.26521683 C516.9381687 184.33396242 516.93839013 185.40270801 516.93861827 186.50383984 C516.94256542 203.81744045 516.96001648 221.13099896 516.9833068 238.44458331 C517.00702514 256.21985497 517.01948289 273.99510551 517.02064872 291.77039325 C517.02156527 301.75063614 517.02731243 311.73082417 517.04546833 321.71105194 C517.0608759 330.21052873 517.06598593 338.70993373 517.05773023 347.20942183 C517.05382591 351.54481305 517.05474264 355.88005972 517.06878757 360.21543312 C517.08153963 364.18812241 517.08031759 368.16055871 517.06819686 372.13324772 C517.06624211 373.56667721 517.06930806 375.0001247 517.07804123 376.43352892 C517.1281048 385.20974255 516.67861821 393.16961714 512.6977129 401.13142776 C513.43763477 401.40470901 514.17755665 401.67799026 514.9399004 401.95955276 C524.48837833 406.01697965 530.25404152 414.22274537 536.28169727 422.2554512 C538.58689298 425.30943806 540.95523943 428.31313236 543.3227129 431.31892776 C543.78000782 431.90214798 544.23730274 432.48536819 544.70845509 433.08626175 C547.53361321 436.68242312 550.40931132 440.23100954 553.3227129 443.75642776 C556.46860555 447.59951824 559.58566578 451.46127629 562.6352129 455.38142776 C563.36611134 456.31470901 564.09700977 457.24799026 564.85005665 458.20955276 C568.40713243 463.83469586 569.21283664 469.16701348 568.35786915 475.64314651 C566.373587 483.12236385 560.06531534 488.22982408 553.6977129 492.13142776 C545.59727389 496.37128966 538.74605731 497.27976545 529.69871902 497.26564884 C528.16832393 497.26917719 528.16832393 497.26917719 526.60701177 497.27277681 C523.16632322 497.27946771 519.72567243 497.27900856 516.28497791 497.27859879 C513.80195974 497.28189735 511.31894211 497.2856229 508.83592516 497.28974026 C502.71331941 497.29871641 496.59072497 497.30298804 490.46811353 497.30525923 C483.13547971 497.30822172 475.80285547 497.31691939 468.47022668 497.32567351 C450.74656364 497.34651685 433.02289894 497.35698747 415.29922651 497.36580312 C406.91477827 497.37000972 398.53033076 497.37523169 390.14588313 497.38048765 C361.44542068 497.39837759 332.74495801 497.41337372 304.04449081 497.42080784 C302.24269765 497.4212826 300.44090448 497.42175848 298.63911131 497.4222355 C297.74558412 497.42247188 296.85205694 497.42270825 295.93145317 497.42295179 C291.40440237 497.42415299 286.87735158 497.42536844 282.35030079 497.42659378 C281.00269088 497.42695401 281.00269088 497.42695401 279.62785653 497.42732151 C250.49853855 497.43521466 221.36926128 497.45864695 192.23996108 497.49114972 C161.44340429 497.52545011 130.64687133 497.54515916 99.85029513 497.54845208 C96.46929585 497.54886962 93.08829659 497.54934918 89.70729733 497.54987526 C88.87479916 497.54999845 88.042301 497.55012164 87.18457562 497.55024857 C73.78923337 497.5525803 60.39393842 497.56823871 46.99861303 497.58871711 C33.53298701 497.60897631 20.06741778 497.61445195 6.60177933 497.60494647 C-1.39644282 497.59973193 -9.39447584 497.60560673 -17.39267077 497.62748114 C-23.36769882 497.64258633 -29.34251448 497.636744 -35.31755333 497.62281062 C-37.73281324 497.62042648 -40.14809132 497.62479969 -42.56332339 497.63663927 C-72.28029049 497.77328219 -72.28029049 497.77328219 -84.3022871 486.13142776 C-88.35526458 481.94164092 -91.44926032 477.711681 -91.7163496 471.73299026 C-90.02618667 461.1136647 -82.25881386 451.88812735 -75.64799023 443.78767776 C-73.32800654 440.93231323 -71.07067326 438.02781009 -68.8022871 435.13142776 C-67.88172357 433.96345161 -66.96115068 432.79548285 -66.04056835 431.62752151 C-63.76310758 428.72945065 -61.51560696 425.80970811 -59.27909374 422.87996292 C-58.02438655 421.2391737 -56.76244158 419.60425614 -55.4975996 417.97127151 C-54.2278665 416.328752 -52.9672714 414.67890656 -51.7319746 413.01033401 C-47.563493 407.66276761 -42.07244258 404.55929585 -36.3022871 401.13142776 C-36.51435191 400.43917872 -36.72641671 399.74692968 -36.94490772 399.03370339 C-39.29978283 390.65349962 -39.73009287 382.79335948 -39.68996716 374.13336563 C-39.69414828 372.65004117 -39.69963004 371.16671992 -39.70628697 369.68340451 C-39.72065777 365.63852372 -39.7165233 361.59384813 -39.70912015 357.54895651 C-39.70437005 353.17466391 -39.7169144 348.80041454 -39.72713757 344.42613602 C-39.74429362 335.86950645 -39.7451724 327.31295042 -39.73992466 318.75630813 C-39.73587658 311.80015924 -39.73733409 304.84403201 -39.74267292 297.88788414 C-39.74342134 296.89633129 -39.74416976 295.90477843 -39.74494087 294.88317852 C-39.7464724 292.86861697 -39.74801075 290.85405542 -39.74955583 288.83949388 C-39.76326875 269.96796034 -39.75785118 251.0964683 -39.74637062 232.22493572 C-39.73643455 214.97069622 -39.74938753 197.71656391 -39.77330481 180.46234094 C-39.79770093 162.72861217 -39.80730273 144.99493331 -39.80065209 127.26118809 C-39.79716165 117.31176419 -39.79938064 107.36242274 -39.81690311 97.41301155 C-39.83163127 88.94556977 -39.83225223 80.47826855 -39.8148322 72.0108295 C-39.80632584 67.69345222 -39.80416383 63.37632599 -39.81948376 59.05896187 C-39.83335119 55.10187991 -39.82854166 51.14526363 -39.80924452 47.18820847 C-39.80549056 45.76173351 -39.80838904 44.33522105 -39.81885617 42.90877955 C-39.91060966 29.44028805 -37.12359083 19.23474965 -27.6772871 9.44783401 C-19.6517085 1.99816499 -10.69168935 -0.02436232 0 0 Z M-5.3022871 35.13142776 C-5.39987396 36.99236477 -5.4260007 38.85706147 -5.42533493 40.72055531 C-5.4273258 41.94212015 -5.42931667 43.163685 -5.43136787 44.42226696 C-5.42851525 45.79452343 -5.42556986 47.16677971 -5.42254162 48.5390358 C-5.42297861 49.98007603 -5.42385474 51.42111619 -5.42513561 52.86215591 C-5.42739065 56.84880312 -5.42334882 60.83542374 -5.41835983 64.82206757 C-5.4140124 69.17709459 -5.41545317 73.53212026 -5.41617775 77.88714886 C-5.41671077 86.35208556 -5.41208021 94.81701171 -5.40567642 103.2819457 C-5.39849437 113.0673454 -5.39768266 122.85273871 -5.39689159 132.63814163 C-5.39163491 158.49007202 -5.37767389 184.34200005 -5.3647871 210.19392776 C-5.3441621 267.92330276 -5.3235371 325.65267776 -5.3022871 385.13142776 C155.7377129 385.13142776 316.7777129 385.13142776 482.6977129 385.13142776 C482.7183379 327.40205276 482.7389629 269.67267776 482.7602129 210.19392776 C482.7738689 182.79889236 482.7738689 182.79889236 482.78780079 154.85042191 C482.79114414 138.55366144 482.79114414 138.55366144 482.79315662 122.25690079 C482.79409252 114.96860815 482.79777481 107.6803231 482.80328846 100.39203262 C482.80962969 91.99746384 482.81255452 83.60290239 482.81115785 75.20833119 C482.81055239 70.9092172 482.81154801 66.6101196 482.81692803 62.31100857 C482.82175425 58.43107669 482.8220627 54.55117297 482.81861401 50.67123985 C482.81818648 49.26143046 482.81948438 47.85161938 482.82259548 46.44181335 C482.82655988 44.53473136 482.82386884 42.62763889 482.82076073 40.72055531 C482.82114045 39.6577181 482.82152017 38.5948809 482.82191139 37.4998365 C482.96487288 35.17555208 482.96487288 35.17555208 481.6977129 34.13142776 C479.11888363 34.03163624 476.56678716 33.99781275 473.98741627 34.00558662 C472.75531048 34.00340646 472.75531048 34.00340646 471.49831367 34.00118226 C468.71010712 33.99749519 465.92195432 34.00102111 463.13374805 34.00444412 C461.12894443 34.00329337 459.12414101 34.00170616 457.11933804 33.99971688 C451.58235746 33.99551723 446.04539398 33.99761709 440.50841331 34.0007031 C434.54789135 34.00295441 428.58737245 33.99947893 422.62685108 33.99672318 C411.6157057 33.99252173 400.60456543 33.99290242 389.59341985 33.99563464 C379.42271893 33.99814606 369.25202002 33.99880884 359.08131886 33.997612 C358.40776818 33.99753561 357.73421751 33.99745923 357.04025622 33.99738053 C354.30638238 33.99706921 351.57250854 33.99675081 348.83863471 33.99642077 C323.17087559 33.99335888 297.50311997 33.99613979 271.83536139 34.00151766 C249.01017981 34.00626359 226.18500381 34.00583897 203.35982227 34.00105667 C177.74026307 33.99570689 152.12070696 33.993576 126.50114727 33.99666893 C123.77213383 33.99698967 121.04312038 33.99730251 118.31410694 33.997612 C117.64210973 33.99769108 116.97011252 33.99777015 116.27775176 33.99785163 C106.11119906 33.99899111 95.94464859 33.99765509 85.7780962 33.99513245 C74.22312264 33.99227965 62.66815535 33.99307092 51.11318254 33.99841319 C45.21142134 34.00105135 39.30967148 34.00205335 33.40791035 33.99876404 C28.01452401 33.9958034 22.62115965 33.99738996 17.22777534 34.00274159 C15.26750452 34.00386678 13.30723188 34.00327237 11.34696221 34.0008658 C8.70061753 33.99786398 6.05435004 34.00090403 3.40800953 34.00558662 C2.63121051 34.00324546 1.85441148 34.00090429 1.0540731 33.99849218 C-2.41471167 33.69565007 -2.41471167 33.69565007 -5.3022871 35.13142776 Z " fill="#201D1E" transform="translate(361.3022871017456,441.8685722351074)"/>
<path d="M0 0 C0.83879771 -0.00235223 1.67759541 -0.00470446 2.54181123 -0.00712797 C5.37719751 -0.0138314 8.21253811 -0.01335934 11.04793167 -0.01294994 C13.09143368 -0.01624772 15.13493504 -0.01997311 17.17843556 -0.02409142 C22.81332481 -0.03412916 28.4482034 -0.03783106 34.08310032 -0.04048073 C40.15277244 -0.04437849 46.22243609 -0.05395712 52.29210281 -0.0626936 C66.26578762 -0.08153707 80.23947162 -0.09171586 94.21316546 -0.10015428 C101.11655577 -0.10435948 108.0199452 -0.10958162 114.92333478 -0.11483881 C138.54855826 -0.13272909 162.17378199 -0.14772594 185.79901123 -0.155159 C187.28241414 -0.15563376 188.76581706 -0.15610964 190.24921997 -0.15658666 C190.98486269 -0.15682303 191.72050542 -0.15705941 192.47844035 -0.15730295 C196.20564466 -0.15850416 199.93284896 -0.15971961 203.66005325 -0.16094494 C204.76957026 -0.16130516 204.76957026 -0.16130516 205.90150175 -0.16167267 C229.88944529 -0.16956749 253.87733941 -0.19300304 277.86526137 -0.22550088 C303.21925592 -0.2597868 328.57322154 -0.27950896 353.92723966 -0.28280324 C356.7096909 -0.28322079 359.49214213 -0.28370035 362.27459335 -0.28422642 C362.95972453 -0.28434961 363.64485571 -0.2844728 364.35074843 -0.28459973 C375.38355679 -0.28693323 386.41630782 -0.30260145 397.44909573 -0.32306826 C408.53555563 -0.34330862 419.62196144 -0.3484782 430.70844027 -0.33929763 C436.71633943 -0.33473988 442.72405215 -0.33672477 448.73192596 -0.35605907 C454.2292691 -0.37359807 459.7262885 -0.37276858 465.22363463 -0.35716178 C467.21491191 -0.35477159 469.20621108 -0.35918177 471.19745478 -0.37099043 C473.90037364 -0.38602972 476.60213361 -0.37649224 479.30502319 -0.36076355 C480.46978624 -0.37609686 480.46978624 -0.37609686 481.65807986 -0.39173993 C487.15556406 -0.32172503 490.34633966 1.04249626 494.90419388 4.13422108 C496.60097122 5.93353748 496.60097122 5.93353748 497.74013138 7.73578358 C498.16423294 8.39062733 498.5883345 9.04547108 499.02528763 9.72015858 C499.43907669 10.3930492 499.85286575 11.06593983 500.27919388 11.75922108 C500.93468216 12.78015858 500.93468216 12.78015858 501.60341263 13.82172108 C504.68362631 18.64707131 506.38697791 21.3408127 505.90419388 27.13422108 C502.22194544 29.58905337 500.44480532 29.38116703 496.05160904 29.37473011 C495.35075831 29.37643896 494.64990758 29.37814781 493.92781895 29.37990844 C491.57389342 29.38320885 489.22025146 29.37219075 486.86635208 29.36127186 C485.181202 29.36070786 483.49605143 29.36102408 481.81090164 29.36215687 C477.230604 29.36273184 472.65041063 29.35095423 468.07013726 29.33700895 C463.28551398 29.32452559 458.50088843 29.32333299 453.71625137 29.32095814 C444.65338214 29.31473632 435.59056102 29.29831601 426.527713 29.27825916 C416.21103872 29.25592198 405.89436217 29.24491222 395.57766974 29.23486829 C374.3531509 29.21395039 353.12867542 29.17876079 331.90419388 29.13422108 C332.06717972 29.72751209 332.23016556 30.32080311 332.39809036 30.93207264 C333.09008156 33.9430522 332.99754209 36.79939946 332.96669388 39.88422108 C332.95767044 41.05468983 332.948647 42.22515858 332.93935013 43.43109608 C332.92194778 44.76914295 332.92194778 44.76914295 332.90419388 46.13422108 C329.9809348 47.59585062 327.04761571 47.27509168 323.843647 47.26793385 C322.74064129 47.27133218 322.74064129 47.27133218 321.61535263 47.27479917 C319.13870064 47.28115532 316.66210315 47.28030878 314.18544388 47.27948475 C312.41501672 47.2824752 310.64459022 47.28587746 308.87416458 47.28966236 C304.05611709 47.29851727 299.23808734 47.30084107 294.4200325 47.30147815 C290.40382829 47.30242589 286.38762824 47.30610256 282.37142563 47.30965024 C272.90057541 47.31780013 263.4297347 47.32023395 253.95888138 47.31952381 C244.17384709 47.31892257 234.38886785 47.32948242 224.6038475 47.34526747 C216.21488306 47.35832052 207.82593666 47.36370867 199.43696213 47.3630684 C194.42121828 47.36281279 189.40552335 47.36569845 184.38978958 47.37624645 C179.67518956 47.38589016 174.96068561 47.38603241 170.24608231 47.37872982 C168.51180761 47.37767938 166.77752706 47.38007387 165.04326248 47.38609028 C162.68364032 47.39374857 160.32435507 47.38920682 157.96474075 47.38145924 C157.27155998 47.3866028 156.57837921 47.39174636 155.86419296 47.39704579 C151.13246535 47.36249254 151.13246535 47.36249254 148.90419388 45.13422108 C148.92167315 42.3783233 149.04282659 39.74635431 149.27919388 37.00922108 C149.33591263 36.25511951 149.39263138 35.50101795 149.45106888 34.72406483 C149.59264038 32.86004012 149.74719347 30.99700971 149.90419388 29.13422108 C149.01020984 29.13606466 148.1162258 29.13790825 147.19515133 29.1398077 C125.46320406 29.18393683 103.73126449 29.21705331 81.99928188 29.23784542 C71.48994909 29.24816705 60.98064617 29.26224428 50.47133255 29.28509998 C41.31361936 29.30500676 32.15592779 29.31793106 22.99819356 29.32239807 C18.14726002 29.32501005 13.29638837 29.3311677 8.44547462 29.34568119 C3.88274932 29.35922228 -0.67988842 29.36345078 -5.24263191 29.36043644 C-6.92004878 29.36098816 -8.59746848 29.36498624 -10.27486801 29.37263203 C-12.5597973 29.38253903 -14.84439315 29.38020565 -17.12932968 29.37473011 C-18.40970014 29.3765737 -19.69007059 29.37841728 -21.00924015 29.38031673 C-24.09580612 29.13422108 -24.09580612 29.13422108 -27.09580612 27.13422108 C-26.64690071 21.37940087 -25.1041735 17.76902356 -21.90830612 13.00922108 C-21.53383347 12.41496326 -21.15936081 11.82070545 -20.7735405 11.20843983 C-15.34113022 2.90866965 -9.95531395 -0.0187943 0 0 Z " fill="#A8A0C7" transform="translate(360.0958061218262,858.8657789230347)"/>
<path d="M0 0 C2.28941733 0.66291838 4.56300796 1.36677228 6.83691406 2.08105469 C13.70699351 4.20110561 20.59649387 6.19480895 27.53637695 8.07421875 C61.12443644 17.22147585 61.12443644 17.22147585 69.19628906 29.30371094 C72.88819403 39.6824846 69.22401908 51.86631839 64.96191406 61.45605469 C62.06437711 66.29103203 59.70292777 68.65454659 54.96191406 71.45605469 C55.86941406 71.99230469 56.77691406 72.52855469 57.71191406 73.08105469 C61.97766315 75.9148029 64.34950433 79.6188255 65.96191406 84.45605469 C66.67025654 92.86558144 65.38399251 99.95652714 62.71191406 107.89355469 C62.39198486 108.88838867 62.07205566 109.88322266 61.74243164 110.90820312 C61.11112867 112.87069369 60.4737406 114.83123965 59.82958984 116.78955078 C58.70543442 120.2442569 57.67788503 123.72176711 56.64941406 127.20605469 C55.67289024 130.51121222 54.89510687 132.55626547 52.96191406 135.45605469 C45.71167063 135.07446293 39.41087405 133.09798508 32.61035156 130.70996094 C30.14313039 129.86201876 27.64474284 129.10060624 25.12597656 128.42089844 C21.96191406 127.45605469 21.96191406 127.45605469 19.96191406 125.45605469 C19.6641805 119.0103388 21.95012667 112.77003121 24.02441406 106.76855469 C26.61102714 99.30954012 26.61102714 99.30954012 26.96191406 91.45605469 C18.91937261 87.43478396 10.67237712 85.46533942 1.96191406 83.45605469 C1.73117187 84.28105469 1.50042969 85.10605469 1.26269531 85.95605469 C-0.6434642 92.70672237 -2.60414497 99.43794956 -4.66308594 106.14355469 C-4.86893311 106.82611328 -5.07478027 107.50867188 -5.28686523 108.21191406 C-6.25669255 111.33861532 -7.2062082 113.70823808 -9.03808594 116.45605469 C-15.59778165 117.35136451 -21.57720109 115.08494448 -27.78808594 113.14355469 C-28.82835937 112.83482422 -29.86863281 112.52609375 -30.94042969 112.20800781 C-39.81796479 109.48043396 -39.81796479 109.48043396 -42.03808594 106.45605469 C-41.83016044 99.64071905 -39.68459693 93.25972003 -37.72558594 86.76855469 C-37.40726807 85.69710205 -37.0889502 84.62564941 -36.76098633 83.52172852 C-35.86032115 80.49768948 -34.9511315 77.47637521 -34.03808594 74.45605469 C-33.66167969 73.20566406 -33.28527344 71.95527344 -32.89746094 70.66699219 C-31.5387303 66.21081629 -30.14047505 61.76854727 -28.70996094 57.33496094 C-25.77281876 48.1947792 -23.03764365 39.02147379 -20.47558594 29.76855469 C-16.3201552 14.80809501 -16.3201552 14.80809501 -14.28808594 8.08105469 C-13.73894531 6.24414062 -13.73894531 6.24414062 -13.17871094 4.37011719 C-10.36131115 -2.82776034 -7.02466225 -1.87481403 0 0 Z " fill="#323137" transform="translate(712.0380859375,88.5439453125)"/>
<path d="M0 0 C6.34440926 4.67247082 10.28440156 13.02121379 14.3203125 19.65234375 C16.09401807 22.55863287 17.91847018 25.4193589 19.8046875 28.25390625 C20.27551758 28.96426025 20.74634766 29.67461426 21.23144531 30.40649414 C22.11196371 31.72927712 22.9985629 33.04805041 23.89355469 34.36108398 C32.86071298 47.91348598 37.48990958 60.94685388 40.4375 76.8125 C40.77581874 78.54534814 41.11630491 80.27777456 41.45898438 82.00976562 C41.93786496 84.43076895 42.41370867 86.85185403 42.87217712 89.27680969 C43.43807281 92.26464979 44.03692649 95.11077946 45 98 C45.23188622 100.72331488 45.13093368 103.25039269 45 106 C41.2524897 109.7475103 35.23510753 110.03600607 30.1875 111.1875 C28.99833984 111.47302734 27.80917969 111.75855469 26.58398438 112.05273438 C25.43607422 112.31763672 24.28816406 112.58253906 23.10546875 112.85546875 C22.05512451 113.09934326 21.00478027 113.34321777 19.92260742 113.59448242 C16.92090998 114.0109739 14.89029308 113.86166089 12 113 C8.09116921 109.60022624 7.77945294 104.22286774 6.875 99.375 C6.54133821 97.65320327 6.20550451 95.93182558 5.8671875 94.2109375 C5.65231689 93.07084229 5.65231689 93.07084229 5.43310547 91.90771484 C5.06330219 89.9281924 5.06330219 89.9281924 4 88 C-4.25 89.65 -12.5 91.3 -21 93 C-20.40029146 99.5967939 -19.90381174 104.78860483 -18.4140625 110.9921875 C-17.68554256 114.52482191 -17.36979352 117.73958703 -19 121 C-22.57230241 122.30211786 -26.30961921 123.09514702 -30 124 C-31.11375 124.28359375 -32.2275 124.5671875 -33.375 124.859375 C-45.3762602 127.80412866 -45.3762602 127.80412866 -50 127 C-52.72364488 123.35309988 -53.65511889 119.90527336 -54.5 115.4765625 C-54.87125 113.57197266 -54.87125 113.57197266 -55.25 111.62890625 C-55.50029488 110.2943261 -55.7502942 108.95969049 -56 107.625 C-56.2475 106.34238281 -56.495 105.05976563 -56.75 103.73828125 C-57.12649255 101.78718706 -57.50290186 99.83605562 -57.8684082 97.88287354 C-58.47632861 94.64213611 -59.13014177 91.42283018 -59.85546875 88.20605469 C-63.43288114 72.1035001 -61.69851823 57.57338219 -59.17407227 41.48974609 C-58.68333413 38.3483326 -58.21665826 35.20395228 -57.75195312 32.05859375 C-57.44412654 30.0466575 -57.1349318 28.03493 -56.82421875 26.0234375 C-56.61776985 24.62344009 -56.61776985 24.62344009 -56.40715027 23.19515991 C-54.97170369 14.24752395 -54.97170369 14.24752395 -52 11 C-47.01022993 8.34581324 -41.3905884 7.2791026 -35.88671875 6.2109375 C-35.15048782 6.0621817 -34.4142569 5.9134259 -33.65571594 5.76016235 C-31.33417803 5.29218953 -29.01098977 4.83317333 -26.6875 4.375 C-24.34652804 3.90800919 -22.00595058 3.43913443 -19.66572571 2.96841431 C-18.21716669 2.67760757 -16.76811661 2.3892335 -15.31852722 2.10360718 C-2.71316461 -0.40697469 -2.71316461 -0.40697469 0 0 Z " fill="#323137" transform="translate(517,85)"/>
<path d="M0 0 C2.59925041 0.34714654 5.20090635 0.66825918 7.80371094 0.98754883 C9.47838676 1.20413256 11.15287476 1.42217488 12.82714844 1.6418457 C13.59481537 1.73573074 14.3624823 1.82961578 15.15341187 1.92634583 C19.47563451 2.52666293 22.61666859 3.483432 26.17871094 6.02856445 C25.22677659 34.9804988 25.22677659 34.9804988 21.17871094 39.02856445 C12.14721608 39.80996139 3.10011235 38.28226202 -5.82128906 37.02856445 C-5.89645752 37.87451172 -5.89645752 37.87451172 -5.97314453 38.73754883 C-6.20769784 41.33518682 -6.45193352 43.93183093 -6.69628906 46.52856445 C-6.77492188 47.41543945 -6.85355469 48.30231445 -6.93457031 49.21606445 C-7.4557986 54.66891426 -8.35355399 59.74965174 -9.82128906 65.02856445 C-8.81066406 64.98731445 -7.80003906 64.94606445 -6.75878906 64.90356445 C-2.49687703 64.911216 1.70202216 65.33069114 5.92871094 65.84106445 C7.83910156 66.06729492 7.83910156 66.06729492 9.78808594 66.2980957 C13.14687752 67.02170633 14.84867037 67.53043638 17.17871094 70.02856445 C17.97821965 73.29435427 17.44853842 76.69800727 17.17871094 80.02856445 C17.12408691 80.7045166 17.06946289 81.38046875 17.01318359 82.0769043 C16.81946329 84.3343185 16.59839408 86.587295 16.36621094 88.84106445 C16.29644043 89.57019043 16.22666992 90.29931641 16.15478516 91.05053711 C15.23855664 98.96871875 15.23855664 98.96871875 12.17871094 102.02856445 C6.28760652 102.7498726 0.12108557 101.83042411 -5.73925781 101.1105957 C-6.55896561 101.01147385 -7.3786734 100.91235199 -8.22322083 100.81022644 C-9.94713021 100.59891962 -11.67065665 100.38446673 -13.39379883 100.16699219 C-15.98325298 99.84424723 -18.57472613 99.54455419 -21.16699219 99.24536133 C-36.89265576 97.33910326 -49.98189372 92.34772198 -63.83520508 84.82763672 C-65.88036498 83.71792238 -67.93297305 82.62314304 -69.98730469 81.53051758 C-93.55681363 68.92527761 -93.55681363 68.92527761 -96.82128906 64.02856445 C-96.8659668 61.4675293 -96.8659668 61.4675293 -96.56738281 58.36450195 C-96.45765137 57.20273437 -96.34791992 56.0409668 -96.23486328 54.84399414 C-95.58082639 48.81017567 -94.9020994 42.78238502 -94.14672852 36.76049805 C-93.88156372 34.63573275 -93.62568779 32.50997135 -93.37011719 30.3840332 C-93.19945334 29.00766155 -93.02824893 27.6313568 -92.85644531 26.25512695 C-92.63033569 24.42328857 -92.63033569 24.42328857 -92.3996582 22.55444336 C-90.80422775 12.82831143 -90.80422775 12.82831143 -87.54980469 10.18041992 C-84.74593291 8.99675251 -82.14314656 8.22384477 -79.16503906 7.59887695 C-78.070625 7.36313965 -76.97621094 7.12740234 -75.84863281 6.88452148 C-74.10259766 6.52269775 -74.10259766 6.52269775 -72.32128906 6.15356445 C-69.87294088 5.6347634 -67.42502727 5.1139075 -64.97753906 4.59106445 C-63.76453125 4.33196289 -62.55152344 4.07286133 -61.30175781 3.8059082 C-58.1924091 3.11145209 -55.1180812 2.34908626 -52.04003906 1.52856445 C-51.15251953 1.29637207 -50.265 1.06417969 -49.35058594 0.82495117 C-47.75834008 0.40229904 -46.17021853 -0.03654472 -44.58886719 -0.49829102 C-30.25459476 -4.23001698 -14.45299754 -1.94388079 0 0 Z " fill="#313137" transform="translate(176.8212890625,490.971435546875)"/>
<path d="M0 0 C3.54094497 0.78378845 7.0879469 1.53486906 10.63623047 2.28466797 C12.98170167 2.79446223 15.32676674 3.30612925 17.67138672 3.81982422 C18.77200439 4.05266113 19.87262207 4.28549805 21.0065918 4.52539062 C31.21845891 6.83307589 31.21845891 6.83307589 34.42138672 10.75732422 C35.37079788 13.54774101 35.96872679 15.88378547 36.42138672 18.75732422 C36.55158203 19.58151855 36.68177734 20.40571289 36.81591797 21.25488281 C37.21546413 23.98158358 37.57380673 26.71103308 37.92138672 29.44482422 C38.17687324 31.39938541 38.43337942 33.3538136 38.69091797 35.30810547 C38.81418457 36.24477051 38.93745117 37.18143555 39.06445312 38.14648438 C39.5210423 41.48626865 40.05915748 44.80665727 40.60888672 48.13232422 C41.98698589 57.23253083 41.98698589 57.23253083 41.42138672 61.75732422 C38.24265517 65.43696412 35.02487567 67.78455057 30.73779297 70.02685547 C29.65208008 70.60185791 28.56636719 71.17686035 27.44775391 71.76928711 C26.30467773 72.36346436 25.16160156 72.9576416 23.98388672 73.56982422 C21.62386675 74.81095883 19.26689065 76.05774825 16.90966797 77.30419922 C15.78254395 77.89910156 14.65541992 78.49400391 13.49414062 79.10693359 C9.82052936 81.08004754 6.24856063 83.17760807 2.67138672 85.31982422 C-9.94701528 92.62192302 -23.42948941 95.47453734 -37.70361328 97.31982422 C-39.60207054 97.57097698 -41.50050849 97.82227575 -43.39892578 98.07373047 C-44.29289062 98.19031006 -45.18685547 98.30688965 -46.10791016 98.42700195 C-48.19739326 98.70635676 -50.28308202 99.01387312 -52.36767578 99.32763672 C-55.54053091 99.75222804 -58.62895798 99.9918839 -61.82861328 100.06982422 C-62.84439453 100.10720703 -63.86017578 100.14458984 -64.90673828 100.18310547 C-67.57861328 99.75732422 -67.57861328 99.75732422 -69.1862793 98.04272461 C-70.73558714 95.49966469 -71.1528086 93.70652927 -71.52783203 90.76513672 C-71.65351562 89.81251953 -71.77919922 88.85990234 -71.90869141 87.87841797 C-72.02664063 86.88970703 -72.14458984 85.90099609 -72.26611328 84.88232422 C-72.39566406 83.90134766 -72.52521484 82.92037109 -72.65869141 81.90966797 C-74.32265146 68.86210818 -74.32265146 68.86210818 -72.03173828 65.46044922 C-68.79593413 63.21393551 -66.23181437 62.93398992 -62.32861328 62.50732422 C-61.06533203 62.35779297 -59.80205078 62.20826172 -58.50048828 62.05419922 C-54.49421373 61.75093541 -50.59350597 61.70379232 -46.57861328 61.75732422 C-46.66949219 61.19335938 -46.76037109 60.62939453 -46.85400391 60.04833984 C-47.26860319 57.45231048 -47.67365808 54.85487472 -48.07861328 52.25732422 C-48.22169922 51.37044922 -48.36478516 50.48357422 -48.51220703 49.56982422 C-49.33726939 44.22656323 -49.73018435 39.16335908 -49.57861328 33.75732422 C-50.43841797 33.90169922 -51.29822266 34.04607422 -52.18408203 34.19482422 C-60.24961064 35.46138487 -68.40847995 36.60942401 -76.57861328 35.75732422 C-79.51303035 32.82290715 -79.5776691 29.33740871 -80.20361328 25.38232422 C-80.39600586 24.17080688 -80.39600586 24.17080688 -80.59228516 22.93481445 C-82.78048949 8.3829662 -82.78048949 8.3829662 -81.57861328 3.75732422 C-78.13394392 1.26852956 -75.34518398 0.31922594 -71.14892578 -0.12158203 C-70.11364746 -0.23719482 -69.07836914 -0.35280762 -68.01171875 -0.47192383 C-66.37420654 -0.63688354 -66.37420654 -0.63688354 -64.70361328 -0.80517578 C-62.43787851 -1.05156429 -60.1722526 -1.29895592 -57.90673828 -1.54736328 C-56.81425781 -1.6643457 -55.72177734 -1.78132813 -54.59619141 -1.90185547 C-50.86522021 -2.32324995 -47.1660046 -2.86936773 -43.45361328 -3.43017578 C-28.12828677 -5.40544009 -14.96136235 -3.32450304 0 0 Z " fill="#323137" transform="translate(1078.57861328125,492.24267578125)"/>
<path d="M0 0 C2.5703125 1.50390625 2.5703125 1.50390625 5.125 3.5625 C6.64673828 4.76132813 6.64673828 4.76132813 8.19921875 5.984375 C8.78106934 6.44908203 9.36291992 6.91378906 9.96240234 7.39257812 C14.23678308 10.76455545 18.598983 14.02376847 22.9375 17.3125 C25.57015284 19.31431137 28.20053442 21.31795457 30.81591797 23.34228516 C32.52148407 24.63680715 34.28446994 25.85576787 36.06640625 27.04296875 C38.7429599 29.75196547 39.01910093 32.32198008 39 36 C38.36960352 39.57665048 37.34084347 43.00204523 36.28125 46.47265625 C35.98569214 47.4727623 35.69013428 48.47286835 35.38562012 49.50328064 C34.75684345 51.61745883 34.12098036 53.72954071 33.47851562 55.83959961 C32.51224524 59.02216831 31.57487265 62.21220178 30.640625 65.40429688 C25.97859626 81.09025058 20.59183919 94.53729699 10.25 107.4375 C8.8394764 109.23176178 7.43063188 111.02734476 6.0234375 112.82421875 C5.33991211 113.69353027 4.65638672 114.5628418 3.95214844 115.45849609 C2.14286015 117.81401024 0.41848852 120.2038672 -1.2734375 122.64453125 C-1.76102539 123.34328369 -2.24861328 124.04203613 -2.75097656 124.76196289 C-3.63926284 126.04720013 -4.5146202 127.34151293 -5.37402344 128.64624023 C-7.24584296 131.3267622 -8.77394019 132.89196856 -11.73828125 134.30859375 C-16.9792319 133.81274333 -20.12004021 130.61459306 -24.0625 127.3125 C-24.85205078 126.67376953 -25.64160156 126.03503906 -26.45507812 125.37695312 C-27.97883134 124.14185727 -29.49316119 122.89502032 -30.99658203 121.63525391 C-33.12143131 119.85259978 -33.12143131 119.85259978 -36.05859375 117.91796875 C-38 116 -38 116 -38.61328125 113.1640625 C-37.81783299 109.06015747 -35.81021997 106.49745938 -33.1875 103.375 C-32.73568359 102.81554687 -32.28386719 102.25609375 -31.81835938 101.6796875 C-29.94375893 99.35901425 -28.04979944 97.05835711 -26.11328125 94.7890625 C-25.74589844 94.19867188 -25.37851562 93.60828125 -25 93 C-26.18263974 89.45208078 -27.22050089 88.81844788 -30.18359375 86.64453125 C-31.02857422 86.02255859 -31.87355469 85.40058594 -32.74414062 84.75976562 C-33.63294922 84.11716797 -34.52175781 83.47457031 -35.4375 82.8125 C-36.32244141 82.15830078 -37.20738281 81.50410156 -38.11914062 80.83007812 C-42.17736362 77.39856365 -42.17736362 77.39856365 -47 76 C-48.3657649 77.46514572 -48.3657649 77.46514572 -49.71484375 79.39453125 C-50.23626953 80.10287109 -50.75769531 80.81121094 -51.29492188 81.54101562 C-51.83697266 82.29060547 -52.37902344 83.04019531 -52.9375 83.8125 C-54.00691834 85.2789479 -55.07846102 86.74384948 -56.15234375 88.20703125 C-56.62663818 88.8616333 -57.10093262 89.51623535 -57.58959961 90.19067383 C-58.97097038 91.96275948 -60.29129561 93.53872634 -62 95 C-68.30607086 95.28278345 -72.57017924 90.87727527 -77.1875 87.125 C-77.99380859 86.48691406 -78.80011719 85.84882813 -79.63085938 85.19140625 C-87.01665047 79.30978707 -87.01665047 79.30978707 -89 77 C-89.16789946 70.94678264 -85.45474537 67.23179652 -81.8125 62.8125 C-80.52852746 61.21833479 -79.24736335 59.62190429 -77.96875 58.0234375 C-77.31003906 57.20069336 -76.65132812 56.37794922 -75.97265625 55.53027344 C-73.39864887 52.22866298 -70.98766692 48.82426886 -68.5703125 45.40722656 C-58.69936926 31.53855132 -47.01847553 23.45601576 -32.67333984 14.64404297 C-29.83486861 12.89844796 -27.00472353 11.13989819 -24.17578125 9.37890625 C-20.4929988 7.08902267 -16.80963479 4.80013004 -13.12109375 2.51953125 C-12.3727124 2.05651611 -11.62433105 1.59350098 -10.85327148 1.11645508 C-6.82039562 -1.31304582 -4.66437889 -0.99105725 0 0 Z " fill="#313137" transform="translate(895,169)"/>
<path d="M0 0 C5.952394 3.5714364 9.42858701 8.83369583 11.5 15.375 C12.42172309 22.24296104 11.5579223 27.70770341 7.5 33.375 C2.42772208 39.35432056 -3.7537179 44.18166976 -9.85742188 49.05761719 C-11.65703749 50.50094743 -13.44645946 51.95626565 -15.234375 53.4140625 C-20.742897 57.90484528 -26.25061045 62.39471649 -31.82421875 66.8046875 C-32.51483398 67.35213623 -33.20544922 67.89958496 -33.91699219 68.46362305 C-35.23930143 69.5099985 -36.56408219 70.55326009 -37.89160156 71.59301758 C-41.17413145 74.06760247 -41.17413145 74.06760247 -43.5 77.375 C-42.96117187 77.60316406 -42.42234375 77.83132813 -41.8671875 78.06640625 C-38.7828665 79.77143519 -36.26444522 82.00528147 -33.625 84.3125 C-29.04990689 88.25349897 -24.40361948 92.05881626 -19.625 95.75 C-12.54256255 101.23781562 -5.81487367 107.10077616 0.91357422 113.01318359 C2.35108102 114.24716527 3.83546669 115.42601044 5.32421875 116.59765625 C9.61748045 120.10471922 11.18096099 124.29967316 11.73828125 129.671875 C11.9243071 135.8205188 11.21916693 140.37121831 7.5 145.375 C2.21712869 150.96668216 -2.79549412 154.59522431 -10.6875 154.875 C-21.2578025 154.60686149 -28.48166979 146.89999534 -36.0625 140.3125 C-39.53166552 137.31386497 -43.12460244 134.49370656 -46.75 131.6875 C-51.36938593 128.10139777 -55.78505074 124.38933463 -60.11328125 120.453125 C-63.05236949 117.8940498 -66.10810891 115.51185417 -69.1875 113.125 C-75.99105978 107.84985013 -82.51744948 102.29070823 -89.00927734 96.63891602 C-90.3917924 95.46674431 -91.8251999 94.3553271 -93.26171875 93.25 C-97.61089659 89.60670966 -100.18669895 84.3961173 -100.7734375 78.73828125 C-101.01541842 71.4695466 -100.42348255 66.84553617 -95.5 61.375 C-89.80081761 55.5788561 -83.37462179 50.64588731 -76.96191406 45.67700195 C-72.02587602 41.83778726 -67.27483097 37.8130122 -62.54663086 33.72216797 C-57.28096318 29.16891852 -51.90511204 24.76164138 -46.5 20.375 C-44.72909082 18.91675877 -42.95825882 17.45842381 -41.1875 16 C-36.83815517 12.44657274 -32.46313915 8.92708946 -28.0625 5.4375 C-27.47106201 4.9645752 -26.87962402 4.49165039 -26.27026367 4.00439453 C-18.48443023 -2.13814723 -9.53331472 -4.36640369 0 0 Z " fill="#201D1E" transform="translate(510.5,575.625)"/>
<path d="M0 0 C1.09570312 -0.03738281 2.19140625 -0.07476563 3.3203125 -0.11328125 C10.78821382 0.78122561 16.07339513 4.94754039 21.5 9.875 C22.71918359 10.95168161 23.94059899 12.02584052 25.1640625 13.09765625 C25.77926758 13.63664551 26.39447266 14.17563477 27.02832031 14.73095703 C29.90075199 17.19097983 32.88146932 19.50262757 35.875 21.8125 C41.33469093 26.04175183 46.60698578 30.44800511 51.8293457 34.96606445 C58.00557026 40.30707622 64.3373052 45.44888613 70.68359375 50.5859375 C73.42561961 52.81454659 76.15460883 55.05754449 78.875 57.3125 C80.15503906 58.36824219 80.15503906 58.36824219 81.4609375 59.4453125 C90.46973286 67.11299269 90.46973286 67.11299269 91.14453125 74.10546875 C91.42637463 82.50857682 90.22133411 88.29814234 84.48046875 94.74609375 C81.82938694 97.33267236 78.93179976 99.57357224 76.01171875 101.84765625 C72.10170745 104.92015579 68.27032218 108.08208951 64.4375 111.25 C62.95713048 112.47147444 61.47666327 113.69283049 59.99609375 114.9140625 C59.28952637 115.49704102 58.58295898 116.08001953 57.85498047 116.68066406 C52.70355184 120.92630512 47.52951364 125.1443724 42.359375 129.3671875 C41.49828125 130.07101562 40.6371875 130.77484375 39.75 131.5 C38.85410156 132.23089844 37.95820312 132.96179688 37.03515625 133.71484375 C34.5710022 135.73258722 32.12599993 137.77240287 29.68359375 139.81640625 C28.57105225 140.7432019 28.57105225 140.7432019 27.43603516 141.6887207 C25.97536442 142.90594632 24.5178173 144.12693365 23.06396484 145.35229492 C15.35808053 151.7593634 8.82590635 156.74712568 -1.5 156.58203125 C-7.74872714 155.94042087 -11.80168924 152.95609426 -16 148.4375 C-20.24153236 143.19113993 -21.64631006 138.36735538 -21.421875 131.66796875 C-19.87241809 119.37425143 -9.43514473 113.07906352 -0.375 106 C0.21498779 105.54270508 0.80497559 105.08541016 1.4128418 104.61425781 C5.73406473 101.25427819 9.92221089 97.76750494 14.0625 94.1875 C18.39186651 90.44833656 22.72691336 86.72088237 27.125 83.0625 C27.99640625 82.33546875 28.8678125 81.6084375 29.765625 80.859375 C31.875 79.3125 31.875 79.3125 33.875 79.3125 C30.38424478 75.73847906 26.76389388 72.40214144 22.9375 69.1875 C22.37538818 68.71304443 21.81327637 68.23858887 21.23413086 67.74975586 C17.20239483 64.36925309 13.09157263 61.10328451 8.9375 57.875 C-19.85398682 35.43908075 -19.85398682 35.43908075 -21.40625 24.29296875 C-21.86303652 17.77234113 -19.88603647 12.60847021 -16.125 7.3125 C-11.05645853 2.52500576 -6.98644775 0.15399363 0 0 Z " fill="#201D1E" transform="translate(699.125,573.6875)"/>
<path d="M0 0 C13.44739694 26.19723438 13.44739694 26.19723438 12 33 C7.85029436 36.0122435 3.00225167 37.79634344 -1.703125 39.765625 C-3.4234238 40.49811877 -5.1434679 41.23121092 -6.86328125 41.96484375 C-9.5507106 43.10723362 -12.23956242 44.24562932 -14.93310547 45.37353516 C-28.893658 51.13137438 -28.893658 51.13137438 -41 60 C-42.3252192 61.11754528 -43.65073821 62.23473514 -44.9765625 63.3515625 C-46.19603448 64.43898974 -47.41223073 65.53010247 -48.625 66.625 C-49.26050781 67.1715625 -49.89601563 67.718125 -50.55078125 68.28125 C-52.21336737 69.78875759 -53.69513545 71.17365943 -55 73 C-55.07510752 75.83467213 -55.07510752 75.83467213 -54 78 C-50.93693709 77.88395175 -47.87487257 77.75728391 -44.8125 77.625 C-43.96751953 77.5940625 -43.12253906 77.563125 -42.25195312 77.53125 C-39.4952507 77.40735326 -36.75101134 77.21575642 -34 77 C-32.5754248 76.90984619 -32.5754248 76.90984619 -31.12207031 76.81787109 C-20.26145656 75.6880757 -10.91297921 70.90545697 -1.125 66.375 C1.49367292 65.16705021 4.11414411 63.96432561 6.74246216 62.77749634 C8.36544594 62.04443813 9.98311547 61.29945505 11.59420776 60.5406189 C16.33394564 58.39712444 19.79623208 57.59812145 25 58 C37.15573181 81.68090694 37.15573181 81.68090694 37 90 C27.15573435 95.09099888 17.17829203 99.58775892 6.9375 103.8125 C5.54994329 104.38952469 4.16257275 104.96699725 2.77539062 105.54492188 C-0.81318677 107.03783271 -4.40416283 108.52463662 -8 110 C-8.84103271 110.36697998 -9.68206543 110.73395996 -10.54858398 111.11206055 C-15.77360151 113.00463985 -21.02618724 113.16185553 -26.5390625 113.31640625 C-27.61170097 113.34791779 -27.61170097 113.34791779 -28.70600891 113.38006592 C-31.01223283 113.4460548 -33.31854442 113.50521032 -35.625 113.5625 C-36.40779327 113.58234955 -37.19058655 113.6021991 -37.99710083 113.62265015 C-41.90859824 113.72079994 -45.82017356 113.81335811 -49.73193359 113.90039062 C-53.35973931 113.98202053 -56.98629612 114.09055349 -60.61328125 114.203125 C-62.38798152 114.24144909 -64.16271933 114.27809972 -65.9375 114.3125 C-66.72141113 114.342229 -67.50532227 114.37195801 -68.31298828 114.40258789 C-71.54543947 114.43742824 -73.48931707 114.41536033 -76.0456543 112.33618164 C-78.22553429 109.7304013 -79.45170433 107.30968023 -80.8046875 104.1953125 C-81.30331299 103.06061523 -81.80193848 101.92591797 -82.31567383 100.75683594 C-82.83025146 99.55833008 -83.3448291 98.35982422 -83.875 97.125 C-84.4091595 95.89329871 -84.94391022 94.66185367 -85.47924805 93.43066406 C-86.52206315 91.02774601 -87.56179194 88.62348576 -88.59814453 86.21777344 C-89.74857407 83.57711489 -90.92991752 80.95932528 -92.15234375 78.3515625 C-92.70019531 77.16304688 -93.24804688 75.97453125 -93.8125 74.75 C-94.27269531 73.77546875 -94.73289062 72.8009375 -95.20703125 71.796875 C-96.2283395 68.19462521 -96.30984379 65.48274639 -95 62 C-92.55611588 58.68239766 -89.66465565 55.87172803 -86.72265625 52.99609375 C-85.88214218 52.15458267 -85.04162811 51.31307159 -84.17564392 50.44606018 C-82.39469715 48.6697893 -80.60637277 46.90088909 -78.8112793 45.13891602 C-76.08616009 42.46075241 -73.38841925 39.7572018 -70.69335938 37.04882812 C-68.95469932 35.32133073 -67.21451198 33.59536886 -65.47265625 31.87109375 C-64.27516502 30.6708683 -64.27516502 30.6708683 -63.05348206 29.44639587 C-55.18254033 21.76861423 -46.54466832 16.95802272 -36.484375 12.6953125 C-35.62491272 12.32646942 -34.76545044 11.95762634 -33.87994385 11.5776062 C-32.08333813 10.80939745 -30.28512093 10.04494706 -28.48535156 9.28417969 C-25.73692504 8.11945913 -22.99736756 6.93541261 -20.2578125 5.75 C-18.50050168 5.00142536 -16.74270563 4.25398856 -14.984375 3.5078125 C-14.17176208 3.15478058 -13.35914917 2.80174866 -12.52191162 2.4380188 C-8.17211649 0.6202527 -4.81032395 -0.43248607 0 0 Z " fill="#313137" transform="translate(1060,350)"/>
<path d="M0 0 C2.24609375 1.90625 2.24609375 1.90625 4.4375 4.5 C5.20835937 5.41136719 5.97921875 6.32273438 6.7734375 7.26171875 C7.50820313 8.16535156 8.24296875 9.06898438 9 10 C9.63164062 10.74894531 10.26328125 11.49789062 10.9140625 12.26953125 C14.82081822 17.11131619 14.82081822 17.11131619 15.484375 20.40234375 C14.78385324 24.15917416 12.48353592 25.88621796 9.6875 28.25 C9.14641602 28.72598633 8.60533203 29.20197266 8.04785156 29.69238281 C2.03467836 34.94208965 -4.1460612 40.02556546 -10.46484375 44.90234375 C-14.90776918 48.28504926 -14.90776918 48.28504926 -16.5 53.4375 C-16.2525 54.7059375 -16.2525 54.7059375 -16 56 C-9.58055598 56.94096085 -5.54591631 53.68384177 -0.375 50.375 C1.41907687 49.27100262 3.21464382 48.16942292 5.01171875 47.0703125 C5.8732959 46.53954102 6.73487305 46.00876953 7.62255859 45.46191406 C16.57018374 39.95992399 24.15549658 35.96229408 35 38 C47.01596029 42.83637715 58.43549486 58.39740759 64.0625 69.625 C66.10600374 76.98161345 65.57017074 83.54005324 62.43359375 90.5078125 C55.11077017 103.23795268 41.03409325 112.58573961 29.8046875 121.69921875 C25.96760945 124.84690534 22.18723977 128.05986247 18.41381836 131.28344727 C16.94947384 132.53047987 15.4750915 133.76569847 14 135 C13.31808594 135.62132812 12.63617188 136.24265625 11.93359375 136.8828125 C10 138 10 138 7.5625 138.0078125 C2.11004254 135.86340088 -1.33239018 130.39392862 -5 126 C-5.59167969 125.30390625 -6.18335938 124.6078125 -6.79296875 123.890625 C-8.72684518 121.44213159 -10.02709782 119.79228854 -9.91796875 116.6015625 C-8.69488552 113.13529258 -6.89471888 111.65094611 -4.125 109.25 C-3.63177246 108.8180835 -3.13854492 108.38616699 -2.63037109 107.94116211 C1.52604635 104.32823554 5.78994036 100.8424758 10.07421875 97.3828125 C13.48071339 94.60849777 16.83745695 91.77950349 20.1875 88.9375 C20.76483887 88.44773682 21.34217773 87.95797363 21.93701172 87.45336914 C23.29195319 86.30296657 24.64607052 85.15159343 26 84 C25.62095792 80.70924004 25.62095792 80.70924004 24 78 C17.3400994 78.17434295 13.15905079 81.09448926 7.75 84.75 C-13.00485182 98.22743467 -13.00485182 98.22743467 -25 96 C-36.33907517 91.53535591 -46.87304167 77.10410672 -53 67 C-55.75272975 60.21778097 -56.52133909 52.45535018 -54.125 45.4375 C-52.90493227 43.12579273 -51.56984457 41.08913158 -50 39 C-49.50371094 38.33613281 -49.00742188 37.67226562 -48.49609375 36.98828125 C-44.54204958 32.13862225 -39.90495143 28.30311888 -35.0234375 24.41796875 C-31.79608952 21.83692431 -28.64446047 19.1806153 -25.5 16.5 C-5.12768364 -0.80434253 -5.12768364 -0.80434253 0 0 Z " fill="#313137" transform="translate(299,176)"/>
<path d="M0 0 C5.01791684 2.41935276 8.49958655 5.9991731 11 11 C12.46544676 17.76824896 10.33648953 23.15603198 7.53125 29.18359375 C6.99565208 30.36023842 6.99565208 30.36023842 6.44923401 31.56065369 C2.7687364 39.6050422 -1.040731 47.5897175 -4.86590576 55.56607056 C-11.345731 69.08479395 -17.71589753 82.64465109 -23.875 96.3125 C-28.84090004 107.32898272 -33.9565314 118.25633383 -39.23461914 129.12792969 C-43.00573686 136.90416692 -46.68468075 144.71844623 -50.3125 152.5625 C-50.83610107 153.69107422 -51.35970215 154.81964844 -51.89916992 155.98242188 C-54.28582639 161.12810058 -56.66923245 166.27505618 -59.03222656 171.43164062 C-60.80698869 175.30411637 -62.59302311 179.17123679 -64.38534546 183.03561401 C-65.07879391 184.536252 -65.76820645 186.03876255 -66.45327759 187.54324341 C-75.14430709 206.61866589 -75.14430709 206.61866589 -83 210 C-88.2401022 210.68073835 -92.6609892 210.65733258 -97.4375 208.3125 C-101.4878961 204.6572645 -104.51521268 201.50503316 -105.28442383 195.94360352 C-105.64225277 188.21814811 -103.09424715 182.7509943 -99.6875 175.9375 C-99.10406916 174.73316611 -98.52292972 173.52772001 -97.94384766 172.32128906 C-96.99994085 170.35616948 -96.05425981 168.39205858 -95.1015625 166.43118286 C-92.52940493 161.13497417 -90.037014 155.80488712 -87.57421875 150.45703125 C-87.19399567 149.63140686 -86.81377258 148.80578247 -86.42202759 147.95513916 C-85.63829315 146.25253306 -84.85471559 144.54985474 -84.07128906 142.84710693 C-76.43091608 126.26009108 -68.63600485 109.74866125 -60.78149414 93.26220703 C-56.08462436 83.40172863 -51.42052535 73.52731328 -46.8125 63.625 C-42.0581937 53.41108592 -37.2909966 43.20350434 -32.49838257 33.00750732 C-31.80262648 31.52697167 -31.10731866 30.04622526 -30.4125061 28.56524658 C-28.28791708 24.0372719 -26.15063204 19.51566903 -24 15 C-23.51619873 13.97986816 -23.03239746 12.95973633 -22.53393555 11.90869141 C-22.10250244 11.01843262 -21.67106934 10.12817383 -21.2265625 9.2109375 C-20.68443115 8.08631104 -20.68443115 8.08631104 -20.13134766 6.93896484 C-15.64130598 -0.75631159 -8.22092531 -1.23485387 0 0 Z " fill="#1F1D1D" transform="translate(647,547)"/>
<path d="M0 0 C3.06970446 2.61846426 5.46371794 5.87104722 8 9 C8.92395998 10.08117307 9.84846239 11.16188277 10.7734375 12.2421875 C11.70510232 13.36815849 12.63480996 14.49575193 13.5625 15.625 C14.24348755 16.41342285 14.24348755 16.41342285 14.93823242 17.21777344 C17.20291615 20.05734182 17.99070599 21.87145675 18.25390625 25.51171875 C16.48508901 30.43244709 13.58121281 32.27785365 9.375 35.1875 C7.8138503 36.32119204 6.25397842 37.45664554 4.6953125 38.59375 C3.90672852 39.1609375 3.11814453 39.728125 2.30566406 40.3125 C-1.13431709 42.83019904 -4.44193202 45.50023971 -7.75 48.1875 C-13.82177998 53.07856793 -19.96194196 57.86632375 -26.16064453 62.59619141 C-28.30511657 64.23286704 -30.44752309 65.87222814 -32.58984375 67.51171875 C-36.72531334 70.67611503 -40.8621998 73.83865202 -45 77 C-44.12429445 81.40785758 -41.68803513 84.30710183 -38.9375 87.75 C-38.22883789 88.65298828 -38.22883789 88.65298828 -37.50585938 89.57421875 C-36.34309599 91.05409943 -35.1723234 92.52768096 -34 94 C-30.09164029 92.29905127 -26.89232866 89.73558567 -23.5625 87.125 C-23.00240234 86.69058594 -22.44230469 86.25617188 -21.86523438 85.80859375 C-21.31287109 85.37933594 -20.76050781 84.95007813 -20.19140625 84.5078125 C-19.64887207 84.08790039 -19.10633789 83.66798828 -18.54736328 83.23535156 C-17.12475009 82.09959537 -15.75997751 80.89237089 -14.40234375 79.6796875 C-12 78 -12 78 -9.453125 77.484375 C-4.2271102 78.58283671 -1.20328143 84.03329562 2 88 C2.63736084 88.77754639 2.63736084 88.77754639 3.28759766 89.57080078 C10.71554848 98.69112516 10.71554848 98.69112516 11.55859375 102.5703125 C10.73312522 106.160812 8.87230094 107.30514647 6 109.5625 C5.46673096 109.98740723 4.93346191 110.41231445 4.3840332 110.85009766 C-0.60911674 114.79352292 -5.71991134 118.59556492 -10.84130859 122.37036133 C-14.35627427 124.96945567 -17.79179866 127.62344953 -21.14453125 130.4296875 C-21.81315186 130.98543457 -22.48177246 131.54118164 -23.1706543 132.11376953 C-24.44168321 133.17790892 -25.70292854 134.25388265 -26.95239258 135.34326172 C-29.59500438 137.54722735 -31.70958049 138.92942732 -35.0703125 139.74609375 C-39.48620614 138.62151284 -41.14354655 135.89908764 -43.75 132.3125 C-44.53141357 131.28636597 -44.53141357 131.28636597 -45.32861328 130.23950195 C-46.39587631 128.83519993 -47.4553184 127.42491949 -48.50683594 126.00878906 C-50.59122421 123.20461204 -52.7347738 120.44931005 -54.875 117.6875 C-55.68680167 116.62806652 -56.4979792 115.56815456 -57.30859375 114.5078125 C-60.49772575 110.34345143 -63.71698083 106.20260901 -66.9375 102.0625 C-67.53224121 101.29784424 -68.12698242 100.53318848 -68.73974609 99.74536133 C-72.01303788 95.54086675 -75.29608671 91.3443583 -78.5949707 87.15991211 C-79.9481313 85.44089263 -81.29457398 83.71677551 -82.640625 81.9921875 C-84.08259798 80.16346017 -85.54642853 78.35137682 -87.046875 76.5703125 C-87.60890625 75.88710938 -88.1709375 75.20390625 -88.75 74.5 C-89.21921875 73.9534375 -89.6884375 73.406875 -90.171875 72.84375 C-91.55359672 69.76746391 -91.11659553 68.16238595 -90 65 C-87.70914518 62.60839717 -85.07787658 60.77514916 -82.375 58.875 C-80.81388938 57.73212624 -79.25401678 56.58755972 -77.6953125 55.44140625 C-76.90672852 54.86793457 -76.11814453 54.29446289 -75.30566406 53.70361328 C-71.8753168 51.16899202 -68.56185049 48.49898724 -65.25 45.8125 C-60.25348689 41.78711442 -55.21731055 37.82643618 -50.12182617 33.92675781 C-45.41853609 30.32690184 -40.73745723 26.69906835 -36.0625 23.0625 C-34.91551636 22.17038818 -34.91551636 22.17038818 -33.74536133 21.26025391 C-29.54081612 17.9869227 -25.34437458 14.70368553 -21.15966797 11.4050293 C-19.44160271 10.05243483 -17.71913905 8.70561575 -15.99609375 7.359375 C-14.15850219 5.9123016 -12.33456861 4.44740721 -10.53515625 2.953125 C-9.84292969 2.39109375 -9.15070313 1.8290625 -8.4375 1.25 C-7.87933594 0.78078125 -7.32117188 0.3115625 -6.74609375 -0.171875 C-4.14114445 -1.40733194 -2.68250219 -0.93304424 0 0 Z " fill="#313137" transform="translate(986,247)"/>
<path d="M0 0 C5.24688728 0.32632356 9.77712136 2.38005109 14.546875 4.421875 C15.35811829 4.7637384 16.16936157 5.10560181 17.00518799 5.45782471 C18.71765194 6.18104598 20.42879148 6.90741031 22.13867188 7.63671875 C24.72477024 8.73924386 27.31506424 9.83136836 29.90625 10.921875 C33.93069312 12.62106706 37.9423104 14.34734012 41.94360352 16.1003418 C43.75747383 16.8938966 45.57659553 17.67542477 47.39648438 18.45507812 C48.30205078 18.86693359 49.20761719 19.27878906 50.140625 19.703125 C51.2548584 20.20054199 51.2548584 20.20054199 52.39160156 20.70800781 C54 22 54 22 54.81591797 24.40551758 C55.10401118 28.46595071 53.43776623 31.77573876 51.875 35.4375 C51.51954102 36.29730469 51.16408203 37.15710938 50.79785156 38.04296875 C49.55070535 41.03695597 48.27866765 44.01934058 47 47 C46.5162793 48.12809082 46.03255859 49.25618164 45.53417969 50.41845703 C43.11999407 56.0319355 40.69129703 61.63883124 38.2462616 67.23893738 C35.65562473 73.17261859 33.09150209 79.11623176 30.56640625 85.078125 C30.01400614 86.37956101 29.46159744 87.68099336 28.90917969 88.98242188 C27.8619317 91.45047065 26.8206491 93.92077464 25.78222656 96.39257812 C25.31397461 97.49537109 24.84572266 98.59816406 24.36328125 99.734375 C23.74900269 101.19182129 23.74900269 101.19182129 23.12231445 102.67871094 C22 105 22 105 20 107 C13.66126517 106.77077638 8.3710053 104.26166653 2.63671875 101.72265625 C1.62733246 101.28411316 0.61794617 100.84557007 -0.42202759 100.39373779 C-3.72236611 98.95790504 -7.01741079 97.51033367 -10.3125 96.0625 C-12.59344964 95.06707728 -14.87478498 94.07253794 -17.15649414 93.07885742 C-20.64910909 91.55782271 -24.14148137 90.03626455 -27.63249207 88.5115509 C-35.26179329 85.18144727 -42.90773152 81.89337379 -50.5703125 78.640625 C-51.54387192 78.22675034 -52.51743134 77.81287567 -53.52049255 77.38645935 C-57.23156886 75.80920911 -60.94273672 74.23226218 -64.65786743 72.6645813 C-67.17893225 71.60020677 -69.69712404 70.52928917 -72.21484375 69.45703125 C-73.31912216 68.99438873 -73.31912216 68.99438873 -74.44570923 68.5223999 C-77.96789896 67.01581303 -81.0688359 65.48669011 -84 63 C-83.53059432 56.09582482 -80.80942844 50.38378225 -78 44.125 C-77.5359375 43.06796875 -77.071875 42.0109375 -76.59375 40.921875 C-73.16316244 33.16316244 -73.16316244 33.16316244 -72 32 C-64.66913396 30.94236445 -58.71499372 34.40477059 -52.1875 37.375 C-50.23197724 38.24710002 -48.27435615 39.11437975 -46.31671143 39.98170471 C-44.89901106 40.61027749 -43.48199676 41.24039951 -42.06561279 41.87193298 C-33.08450829 45.87135588 -24.03970134 49.72241842 -14.99893188 53.58453369 C-11.23635368 55.19219854 -7.47518894 56.80315549 -3.71400452 58.41407776 C-0.14298191 59.94344845 3.42849692 61.47175172 7 63 C7.20301224 62.38253403 7.40602448 61.76506805 7.6151886 61.12889099 C8.01703621 59.91351402 8.01703621 59.91351402 8.42700195 58.67358398 C8.69188919 57.87049301 8.95677643 57.06740204 9.22969055 56.23997498 C10.07813037 53.77280549 11.07416737 51.42140018 12.1875 49.0625 C13.61907576 46.14917825 13.61907576 46.14917825 14 43 C13.2479126 42.67201416 12.4958252 42.34402832 11.72094727 42.00610352 C8.33373358 40.52732692 4.94810153 39.04496361 1.5625 37.5625 C0.37849609 37.04623047 -0.80550781 36.52996094 -2.02539062 35.99804688 C-3.71245117 35.25844727 -3.71245117 35.25844727 -5.43359375 34.50390625 C-6.47572021 34.04830322 -7.51784668 33.5927002 -8.59155273 33.12329102 C-11 32 -11 32 -12 31 C-12.3183373 26.56242585 -11.67089136 23.50024042 -9.8828125 19.453125 C-9.44066406 18.44378906 -8.99851562 17.43445313 -8.54296875 16.39453125 C-7.84107422 14.83798828 -7.84107422 14.83798828 -7.125 13.25 C-6.66480469 12.19683594 -6.20460938 11.14367187 -5.73046875 10.05859375 C-2.28990855 2.28990855 -2.28990855 2.28990855 0 0 Z " fill="#313137" transform="translate(188,374)"/>
<path d="M0 0 C1.11729492 -0.00402832 2.23458984 -0.00805664 3.38574219 -0.01220703 C5.24247559 0.00156982 5.24247559 0.00156982 7.13671875 0.015625 C8.42223633 0.02094238 9.70775391 0.02625977 11.03222656 0.03173828 C23.72030245 0.12704406 36.39775592 0.61876793 49.07421875 1.140625 C50.59639511 1.19929749 50.59639511 1.19929749 52.14932251 1.25915527 C55.04672608 1.37326068 57.94320742 1.50079614 60.83984375 1.6328125 C62.15818459 1.68298019 62.15818459 1.68298019 63.50315857 1.73416138 C69.59446848 2.03587473 69.59446848 2.03587473 71.82421875 4.265625 C72.28386565 8.56015707 72.14821654 12.88685318 72.13671875 17.203125 C72.15283203 18.40904297 72.16894531 19.61496094 72.18554688 20.85742188 C72.18619141 22.01177734 72.18683594 23.16613281 72.1875 24.35546875 C72.19048096 25.41628662 72.19346191 26.47710449 72.1965332 27.57006836 C71.82421875 30.265625 71.82421875 30.265625 68.82421875 33.265625 C62.88421875 33.265625 56.94421875 33.265625 50.82421875 33.265625 C50.16421875 50.755625 49.50421875 68.245625 48.82421875 86.265625 C54.10421875 86.265625 59.38421875 86.265625 64.82421875 86.265625 C66.80421875 87.255625 66.80421875 87.255625 68.82421875 88.265625 C68.91113949 92.53633058 68.9645839 96.80680958 69.01171875 101.078125 C69.03685547 102.29306641 69.06199219 103.50800781 69.08789062 104.75976562 C69.09755859 105.92314453 69.10722656 107.08652344 69.1171875 108.28515625 C69.13289795 109.35870361 69.1486084 110.43225098 69.16479492 111.53833008 C68.76979492 114.70144475 68.27904832 115.34459946 65.82421875 117.265625 C62.75126956 117.51669976 59.89665422 117.58162978 56.828125 117.50390625 C55.90697403 117.49160477 54.98582306 117.47930328 54.03675842 117.46662903 C50.9652358 117.41838388 47.8951053 117.34430834 44.82421875 117.265625 C43.75645203 117.2412738 42.6886853 117.21692261 41.58856201 117.1918335 C34.80477243 117.03317701 28.02406562 116.82234891 21.24291992 116.57592773 C18.89190119 116.49299328 16.54064171 116.41665875 14.18920898 116.34643555 C10.74270177 116.24345934 7.29729898 116.12199994 3.8515625 115.99609375 C2.80064926 115.96783005 1.74973602 115.93956635 0.66697693 115.91044617 C-0.30601852 115.87063126 -1.27901398 115.83081635 -2.28149414 115.78979492 C-3.13304581 115.76092697 -3.98459747 115.73205902 -4.86195374 115.70231628 C-7.66263554 115.17374044 -9.09397368 114.18461261 -11.17578125 112.265625 C-11.66162109 110.30786133 -11.66162109 110.30786133 -11.63671875 108.09765625 C-11.63285156 107.28619141 -11.62898437 106.47472656 -11.625 105.63867188 C-11.58826172 104.37120117 -11.58826172 104.37120117 -11.55078125 103.078125 C-11.54949219 102.25248047 -11.54820312 101.42683594 -11.546875 100.57617188 C-11.47043017 95.18681144 -10.8184103 90.40903441 -9.17578125 85.265625 C-6.82725597 84.09136236 -5.4380406 84.15054327 -2.82421875 84.16796875 C-1.9734375 84.17119141 -1.12265625 84.17441406 -0.24609375 84.17773438 C0.64335938 84.18611328 1.5328125 84.19449219 2.44921875 84.203125 C3.34640625 84.20763672 4.24359375 84.21214844 5.16796875 84.21679688 C7.38678523 84.22859909 9.60546893 84.24506345 11.82421875 84.265625 C11.81636353 83.13640625 11.81636353 83.13640625 11.80834961 81.984375 C11.70685284 65.04597742 11.93312487 48.18455906 12.82421875 31.265625 C11.715625 31.28882812 10.60703125 31.31203125 9.46484375 31.3359375 C8.00130883 31.35470077 6.53776661 31.37290037 5.07421875 31.390625 C4.34460938 31.40738281 3.615 31.42414063 2.86328125 31.44140625 C-4.07581578 31.50448895 -4.07581578 31.50448895 -7.17578125 29.265625 C-9.28205731 25.05307288 -8.04921158 19.37567842 -7.86328125 14.765625 C-7.81010742 13.01572266 -7.81010742 13.01572266 -7.75585938 11.23046875 C-7.71267578 10.11800781 -7.66949219 9.00554687 -7.625 7.859375 C-7.58721436 6.83521484 -7.54942871 5.81105469 -7.51049805 4.75585938 C-6.85713996 -0.10501044 -4.2727366 0.01004084 0 0 Z " fill="#323237" transform="translate(586.17578125,77.734375)"/>
<path d="M0 0 C4.60955361 1.55216558 8.09140272 4.60919622 11.90161133 7.55932617 C12.73756836 8.17227539 13.57352539 8.78522461 14.43481445 9.41674805 C20.34738183 13.96821828 20.34738183 13.96821828 21.40942383 17.93823242 C20.34980312 21.7276379 18.61578332 24.06179356 16.15161133 27.12182617 C13.09099081 30.81128202 13.09099081 30.81128202 10.58911133 34.87182617 C11.45693237 35.280177 11.45693237 35.280177 12.34228516 35.69677734 C14.58151013 36.86785088 16.50826699 38.17084636 18.53833008 39.67260742 C19.29621826 40.23189941 20.05410645 40.79119141 20.83496094 41.36743164 C21.64070557 41.96700684 22.4464502 42.56658203 23.27661133 43.18432617 C24.1100708 43.79937012 24.94353027 44.41441406 25.80224609 45.0480957 C30.07043722 48.20921089 34.30088141 51.4098172 38.47973633 54.68823242 C39.24584229 55.28659912 40.01194824 55.88496582 40.80126953 56.50146484 C42.25973065 57.64535278 43.71168237 58.79760036 45.15625 59.95898438 C46.14202026 60.73181763 46.14202026 60.73181763 47.14770508 61.52026367 C48.00319946 62.20354736 48.00319946 62.20354736 48.87597656 62.90063477 C50.84085337 64.20060757 50.84085337 64.20060757 54.58911133 63.87182617 C56.66154821 61.41381964 58.38916279 58.90774236 60.14575195 56.2253418 C61.87802152 53.71850456 63.02815698 52.0728353 65.94580078 51.02734375 C69.33610854 50.82787704 70.48308936 51.66933011 73.19848633 53.66088867 C74.03508789 54.27319336 74.87168945 54.88549805 75.73364258 55.51635742 C76.59344727 56.16991211 77.45325195 56.8234668 78.33911133 57.49682617 C79.21438477 58.12717773 80.0896582 58.7575293 80.99145508 59.40698242 C87.31599262 64.1234205 87.31599262 64.1234205 88.49414062 67.35180664 C88.60985162 70.42216375 88.0428519 71.36800516 86.18676758 73.77807617 C85.63432373 74.51098877 85.08187988 75.24390137 84.51269531 75.99902344 C83.8985376 76.78204834 83.28437988 77.56507324 82.65161133 78.37182617 C82.02134033 79.20061279 81.39106934 80.02939941 80.74169922 80.88330078 C78.70444399 83.55686998 76.64725289 86.21431456 74.58911133 88.87182617 C72.56814644 91.51114599 70.55217064 94.15419693 68.5378418 96.79858398 C67.19746372 98.55516588 65.85273174 100.30843404 64.50366211 102.05834961 C61.20097506 106.35754398 57.9904752 110.68721852 54.93286133 115.16479492 C54.35673096 116.00002686 53.78060059 116.83525879 53.18701172 117.69580078 C52.11044923 119.26877555 51.05111772 120.85373819 50.01269531 122.45214844 C47.64486922 125.8978803 46.22328216 127.60230357 42.30786133 129.26635742 C36.70364429 128.67179238 33.44310003 125.791622 29.15161133 122.30932617 C28.32467773 121.68735352 27.49774414 121.06538086 26.64575195 120.42456055 C20.84785729 115.84273958 20.84785729 115.84273958 19.76879883 111.79370117 C20.80834756 108.09092759 22.69999116 105.55851386 25.15161133 102.68432617 C26.74944504 100.78528081 28.1722925 98.92162878 29.58911133 96.87182617 C28.46627065 93.50330415 27.82604874 93.0409738 25.03833008 91.04370117 C24.28592041 90.49794434 23.53351074 89.9521875 22.75830078 89.38989258 C21.93934326 88.80643066 21.12038574 88.22296875 20.27661133 87.62182617 C18.55457238 86.37537586 16.83324303 85.12794472 15.11254883 83.87963867 C14.21246094 83.22898437 13.31237305 82.57833008 12.38500977 81.90795898 C7.68710028 78.48667317 3.04515937 74.99134691 -1.59838867 71.49682617 C-2.4772876 70.83650391 -3.35618652 70.17618164 -4.26171875 69.49584961 C-6.31203486 67.95529419 -8.36176495 66.41396702 -10.41088867 64.87182617 C-15.43873806 67.12059377 -17.35454407 70.91490968 -20.31323242 75.43823242 C-22.41088867 77.87182617 -22.41088867 77.87182617 -24.75390625 78.70703125 C-28.20233722 78.92091445 -29.30440792 78.02460046 -32.02026367 75.94213867 C-32.85686523 75.31178711 -33.6934668 74.68143555 -34.55541992 74.03198242 C-35.84512695 73.02458008 -35.84512695 73.02458008 -37.16088867 71.99682617 C-38.47379883 71.00102539 -38.47379883 71.00102539 -39.81323242 69.98510742 C-46.03025758 65.25245726 -46.03025758 65.25245726 -47.41088867 63.87182617 C-47.29895118 57.15557652 -44.41623828 53.65425051 -40.22338867 48.62182617 C-38.93724351 47.02601364 -37.65345934 45.42829589 -36.37182617 43.82885742 C-35.71279297 43.0111084 -35.05375977 42.19335938 -34.37475586 41.35083008 C-31.25756403 37.41597604 -28.30337429 33.36659479 -25.34838867 29.30932617 C-20.69620723 22.95327015 -15.99944049 16.63546755 -11.22338867 10.37182617 C-10.68254639 9.65953857 -10.1417041 8.94725098 -9.58447266 8.21337891 C-9.07988525 7.554104 -8.57529785 6.8948291 -8.05541992 6.21557617 C-7.61560791 5.64000977 -7.1757959 5.06444336 -6.72265625 4.47143555 C-6.28977295 3.94356445 -5.85688965 3.41569336 -5.41088867 2.87182617 C-4.74126099 1.99494141 -4.74126099 1.99494141 -4.05810547 1.1003418 C-2.41088867 -0.12817383 -2.41088867 -0.12817383 0 0 Z " fill="#313137" transform="translate(208.410888671875,257.128173828125)"/>
<path d="M0 0 C2.02442982 2.66372345 3.46146165 5.05540856 5 8 C5.6290625 9.14597656 6.258125 10.29195312 6.90625 11.47265625 C7.5649848 12.70961744 8.22123097 13.9479071 8.875 15.1875 C9.19774902 15.78127441 9.52049805 16.37504883 9.85302734 16.98681641 C11.20255252 19.63324936 12.02909963 21.54949627 11.83569336 24.54370117 C11 27 11 27 9.20581055 28.43798828 C8.44051025 28.81165527 7.67520996 29.18532227 6.88671875 29.5703125 C6.05076172 29.99183594 5.21480469 30.41335937 4.35351562 30.84765625 C3.47373047 31.26917969 2.59394531 31.69070312 1.6875 32.125 C-0.03925165 32.97876139 -1.76456521 33.8354388 -3.48828125 34.6953125 C-4.25696533 35.06672363 -5.02564941 35.43813477 -5.81762695 35.82080078 C-8.06018349 37.03251888 -10.00161602 38.42276189 -12 40 C-11.45174561 41.09127197 -10.90349121 42.18254395 -10.33862305 43.30688477 C9.33109973 82.474688 9.33109973 82.474688 18.04614258 101.00512695 C18.91215371 102.81628051 19.82097104 104.60681044 20.734375 106.39453125 C22.33647168 109.69267472 22.84338317 111.39645373 22 115 C20.50366211 116.21142578 20.50366211 116.21142578 18.52734375 117.3828125 C17.80168213 117.81311768 17.07602051 118.24342285 16.32836914 118.68676758 C12.55213427 120.81661631 8.74219902 122.85281483 4.875 124.8125 C4.10285156 125.21919922 3.33070313 125.62589844 2.53515625 126.04492188 C-5.66048642 130.19859086 -5.66048642 130.19859086 -10 129 C-12.12864458 126.32608686 -13.48070887 124.03272859 -15 121 C-15.57991699 119.85354004 -16.15983398 118.70708008 -16.75732422 117.52587891 C-18.86215373 113.30949391 -20.8997064 109.06157096 -22.9375 104.8125 C-23.68439226 103.26371234 -24.43171189 101.71513072 -25.17944336 100.16674805 C-26.70512216 97.00558478 -28.22821275 93.8431956 -29.74902344 90.6796875 C-31.90262342 86.20042215 -34.06339175 81.72464979 -36.2265625 77.25 C-39.48829364 70.5018857 -42.74579648 63.75174853 -46 57 C-49.45791822 57.57052628 -52.17462695 58.43075219 -55.25 60.1015625 C-56.0234375 60.50890625 -56.796875 60.91625 -57.59375 61.3359375 C-59.20118011 62.19706077 -60.80535625 63.06428523 -62.40625 63.9375 C-65.61005832 65.61415969 -68.18065173 66.92582502 -71.8046875 67.25390625 C-75.36948306 65.21778637 -76.48811719 61.96475434 -78.125 58.3125 C-78.45886719 57.60416016 -78.79273438 56.89582031 -79.13671875 56.16601562 C-79.79420898 54.76981579 -80.44190621 53.36895689 -81.07910156 51.96337891 C-81.91426726 50.18278438 -82.85427954 48.45231175 -83.8046875 46.73046875 C-85 44 -85 44 -84.77758789 41.9753418 C-82.21066828 35.45447945 -68.84650546 31.29719543 -62.9375 28.375 C-61.6906801 27.75503385 -60.4439364 27.1349144 -59.19726562 26.51464844 C-50.5736582 22.23305256 -41.907908 18.04278235 -33.20336914 13.92797852 C-28.53502629 11.71591874 -23.90056407 9.4570831 -19.3046875 7.09765625 C-18.39074219 6.63004883 -17.47679687 6.16244141 -16.53515625 5.68066406 C-14.81182828 4.79432688 -13.09275466 3.89964829 -11.37890625 2.99511719 C-3.87577983 -0.86048097 -3.87577983 -0.86048097 0 0 Z " fill="#313137" transform="translate(414,112)"/>
<path d="M0 0 C-0.51755404 8.44430279 -1.4560881 16.68086307 -3 25 C-8.53652051 23.34176227 -13.61560515 20.92776074 -18.8125 18.4375 C-19.68326172 18.02564453 -20.55402344 17.61378906 -21.45117188 17.18945312 C-27.86497861 14.13502139 -27.86497861 14.13502139 -29 13 C-29.4657532 7.64383816 -29.4657532 7.64383816 -27.82641602 5.37768555 C-25.4254298 3.56659542 -23.49280077 3.29297678 -20.52734375 2.83203125 C-19.46322266 2.66123047 -18.39910156 2.49042969 -17.30273438 2.31445312 C-16.19220703 2.14880859 -15.08167969 1.98316406 -13.9375 1.8125 C-12.2659082 1.54663086 -12.2659082 1.54663086 -10.56054688 1.27539062 C-2.44039575 0 -2.44039575 0 0 0 Z " fill="#A49CC3" transform="translate(142,525)"/>
<path d="M0 0 C3.703125 0.63671875 3.703125 0.63671875 5.16210938 2.15771484 C6.56324683 4.32591747 7.77394823 6.52782833 8.953125 8.82421875 C9.37335938 9.59314453 9.79359375 10.36207031 10.2265625 11.15429688 C11.03945907 12.64332912 11.84013764 14.13911304 12.62695312 15.64208984 C13.76758143 17.82068714 13.76758143 17.82068714 15.5625 20.5 C15.93890625 21.20511719 16.3153125 21.91023438 16.703125 22.63671875 C16.373125 23.62671875 16.043125 24.61671875 15.703125 25.63671875 C13.90893555 26.34448242 13.90893555 26.34448242 11.58984375 26.8046875 C10.75388672 26.97548828 9.91792969 27.14628906 9.05664062 27.32226562 C8.17685547 27.48791016 7.29707031 27.65355469 6.390625 27.82421875 C5.08834961 28.09008789 5.08834961 28.09008789 3.75976562 28.36132812 C-0.05014173 29.11863127 -3.38746986 29.63671875 -7.296875 29.63671875 C-7.15472772 26.63650388 -7.00825804 23.63660086 -6.859375 20.63671875 C-6.82005859 19.79753906 -6.78074219 18.95835937 -6.74023438 18.09375 C-5.88581011 1.13671451 -5.88581011 1.13671451 0 0 Z " fill="#A59DC4" transform="translate(497.296875,119.36328125)"/>
<path d="M0 0 C4.10606938 0.61289944 8.20942689 1.24237746 12.3125 1.875 C13.47974609 2.04902344 14.64699219 2.22304688 15.84960938 2.40234375 C16.96787109 2.57636719 18.08613281 2.75039063 19.23828125 2.9296875 C20.26993408 3.08679199 21.30158691 3.24389648 22.36450195 3.40576172 C25 4 25 4 28 6 C28.1875 9.625 28.1875 9.625 28 13 C11.29157175 21.44646925 11.29157175 21.44646925 3 25 C1.39950719 21.79901437 1.33667218 18.26862885 0.9375 14.75 C0.84662109 13.99847656 0.75574219 13.24695313 0.66210938 12.47265625 C0.175918 8.2833682 -0.03883506 4.22434957 0 0 Z " fill="#A69EC6" transform="translate(1058,523)"/>
<path d="M0 0 C0.99 0.66 1.98 1.32 3 2 C2.50447598 8.91639863 0.95956983 14.62497919 -1.5625 21.0625 C-1.89185547 21.92810547 -2.22121094 22.79371094 -2.56054688 23.68554688 C-3.36438009 25.79415283 -4.1775712 27.89859349 -5 30 C-10.00002605 27.27387115 -14.47287434 24.27659294 -18.9375 20.75 C-19.52595703 20.29109375 -20.11441406 19.8321875 -20.72070312 19.359375 C-22.15028342 18.24360502 -23.57560423 17.12238102 -25 16 C-21.13403871 11.9333061 -17.00345951 8.52719423 -12.5 5.1875 C-11.84902344 4.68541016 -11.19804688 4.18332031 -10.52734375 3.66601562 C-4.39177453 -0.8891797 -4.39177453 -0.8891797 0 0 Z " fill="#A69FC6" transform="translate(893,206)"/>
<path d="M0 0 C13.39921294 2.19895059 13.39921294 2.19895059 17 7 C17 12.38753957 15.03481979 17.08251883 13 22 C12 23 12 23 8.5 23.25 C3.64691071 23.21483269 -0.51599057 21.74378145 -5 20 C-3.68421053 3.68421053 -3.68421053 3.68421053 0 0 Z " fill="#A59DC5" transform="translate(728,124)"/>
</svg>
